<?xml version="1.0" encoding="UTF-8" standalone="no"?>
<!-- Created with Inkscape (http://www.inkscape.org/) -->

<svg
   width="48"
   height="29"
   viewBox="0 0 12.7 7.6729167"
   version="1.1"
   id="svg5"
   inkscape:version="1.2.2 (b0a8486541, 2022-12-01)"
   sodipodi:docname="icon.svg"
   inkscape:export-filename="icon48.png"
   inkscape:export-xdpi="96"
   inkscape:export-ydpi="96"
   xmlns:inkscape="http://www.inkscape.org/namespaces/inkscape"
   xmlns:sodipodi="http://sodipodi.sourceforge.net/DTD/sodipodi-0.dtd"
   xmlns="http://www.w3.org/2000/svg"
   xmlns:svg="http://www.w3.org/2000/svg">
  <sodipodi:namedview
     id="namedview7"
     pagecolor="#ffffff"
     bordercolor="#000000"
     borderopacity="0.25"
     inkscape:showpageshadow="2"
     inkscape:pageopacity="0.0"
     inkscape:pagecheckerboard="0"
     inkscape:deskcolor="#d1d1d1"
     inkscape:document-units="mm"
     showgrid="false"
     inkscape:zoom="28.346508"
     inkscape:cx="27.146201"
     inkscape:cy="24.570928"
     inkscape:window-width="3840"
     inkscape:window-height="2063"
     inkscape:window-x="1080"
     inkscape:window-y="56"
     inkscape:window-maximized="1"
     inkscape:current-layer="layer1" />
  <defs
     id="defs2" />
  <g
     inkscape:label="Layer 1"
     inkscape:groupmode="layer"
     id="layer1">
    <path
       id="path337"
       style="fill:#000000;stroke-width:0.264583"
       d="M 6.35,0.05581043 A 6.3499999,3.7807806 0 0 0 0,3.8364582 6.3499999,3.7807806 0 0 0 6.35,7.6171062 6.3499999,3.7807806 0 0 0 12.7,3.8364582 6.3499999,3.7807806 0 0 0 6.35,0.05581043 Z M 3.6106323,2.3125202 c 0.3555994,0 0.7277535,0.093183 0.9859864,0.2625163 L 4.4229858,3.0024006 C 4.1562863,2.8457675 3.8642143,2.7698566 3.6059814,2.7698566 c -0.4571991,0 -0.6433715,0.1776764 -0.6433715,0.4020427 0,0.6307655 1.7569987,0.2199658 1.7569987,1.3079305 0,0.4741324 -0.3850612,0.8805664 -1.1978597,0.8805664 -0.4614325,0 -0.9228713,-0.1438676 -1.1684042,-0.3555339 L 2.543514,4.5774982 c 0.2370662,0.1904997 0.6141689,0.3255616 0.9782349,0.3255616 0.4614324,0 0.6557739,-0.1648565 0.6557739,-0.3849895 0,-0.6392321 -1.7611328,-0.2201849 -1.7611328,-1.3208496 0,-0.4783658 0.3814438,-0.8847005 1.1942423,-0.8847005 z m 1.6551962,0.042375 h 1.219047 c 0.7789319,0 1.2614217,0.3980337 1.2614217,1.0541992 0,0.6519321 -0.4824898,1.0536825 -1.2614217,1.0536825 h -0.668693 v 0.8552449 h -0.550354 z m 2.5822713,0 H 8.4449626 L 9.4314657,4.6405435 10.426237,2.3548949 h 0.550354 L 9.6851969,5.3180215 H 9.1436279 Z M 5.8161825,2.8204995 V 3.9971719 H 6.459554 c 0.4825991,0 0.7322551,-0.2155451 0.7322551,-0.5880778 0,-0.3725326 -0.249656,-0.5885946 -0.7322551,-0.5885946 z" />
  </g>
</svg>
